# xmcd
#
# Track frame offsets: 
#        150
#        16143
#        31968
#        52593
#        72522
#
# Disc length: 1318 seconds
#
# Revision: 0
# Processed by: cddbd v1.5.2PL0 Copyright (c) Steve Scherf et al.
# Submitted via: ExactAudioCopy v0.95b4
#
DISCID=33052405
DTITLE=TATSUYA - Promotion CD
DYEAR=2005
DGENRE=R&B
TTITLE0=Let's Party
TTITLE1=Baby Baby
TTITLE2=Konya
TTITLE3=feel so good
TTITLE4=DESTINY
EXTD=
EXTT0=
EXTT1=
EXTT2=
EXTT3=
EXTT4=
PLAYORDER=
